<svg xmlns="http://www.w3.org/2000/svg" width="81.317" height="81.316" viewBox="0 0 81.317 81.316">
  <path id="facebook" d="M48.041,7.758a40.293,40.293,0,0,1,20.524,5.583A40.929,40.929,0,0,1,88.7,48.663q-.322,15.637-9.864,26.71a41.426,41.426,0,0,1-22.942,13.7V59.848h7.974l1.8-11.485H53.6V40.84a6.537,6.537,0,0,1,1.39-4.319q1.448-1.846,5.1-1.941h7.291V24.519q-.157-.05-2.978-.4a59.189,59.189,0,0,0-6.425-.4q-7.29.034-11.532,4.113t-4.333,11.8v8.728H32.922V59.848h9.188V89.074c-10.356-1.751-18.5-6.318-24.864-13.7S7.6,59.088,7.383,48.663A40.929,40.929,0,0,1,27.518,13.341,40.305,40.305,0,0,1,48.041,7.758Z" transform="translate(-7.383 -7.758)" fill="#464646" fill-rule="evenodd"/>
</svg>
