<svg xmlns="http://www.w3.org/2000/svg" width="126.063" height="80.633" viewBox="0 0 126.063 80.633">
  <g id="Logo_Univision" transform="translate(0 0)">
    <path id="path2463" d="M121.83,262.9v-7.979l1.246.031,1.246.031.033.748a2.4,2.4,0,0,0,.094.748,3.78,3.78,0,0,0,.577-.455,5.976,5.976,0,0,1,1.016-.709,8.259,8.259,0,0,1,8.349,1.148,6.7,6.7,0,0,1,1.418,2.321c.255.737.256.775.256,6.391v5.65l-1.186.031-1.186.031-.032-5.681c-.032-5.622-.035-5.687-.285-6.306a4.583,4.583,0,0,0-5.124-2.45,4.091,4.091,0,0,0-3.324,2.4c-.48,1.058-.549,1.964-.549,7.215v4.811H121.83V262.9Zm-28.64,7.841c-.029-.076-.04-3.653-.024-7.948l.029-7.81,1.246-.031,1.246-.031v15.959H94.465C93.589,270.883,93.228,270.844,93.19,270.745ZM71.87,262.9v-7.979l1.246.031,1.246.031.028,7.948.028,7.948H71.87Zm-12.441,7.07-.793-1.86c-.22-.518-.469-1.091-.553-1.274s-.461-1.055-.839-1.939-.775-1.806-.883-2.049c-.287-.646-1.535-3.537-1.888-4.376-.167-.4-.558-1.31-.869-2.031s-.566-1.358-.566-1.416a3.73,3.73,0,0,1,1.292-.073l1.292.031.71,1.717,1.214,2.935c.277.67.792,1.941,1.145,2.825.611,1.531.873,2.205,1.822,4.69.229.6.451,1.048.494,1a6.9,6.9,0,0,0,.371-.868c.161-.427.451-1.174.644-1.662s.487-1.235.653-1.662c.538-1.383,1.959-4.824,2.86-6.924l.879-2.049,1.178-.031c.979-.026,1.178,0,1.178.132a6.181,6.181,0,0,1-.433,1.084c-.7,1.485-2.567,5.52-2.861,6.182-.234.526-1.792,3.913-3.415,7.422l-.487,1.052-.876.032-.876.032ZM47.5,262.908v-7.976h2.548v15.952H47.5Zm-18.8.028.028-7.948,1.246-.031,1.246-.031v.779a2.73,2.73,0,0,0,.057.779,5.336,5.336,0,0,0,.667-.5,7.482,7.482,0,0,1,.912-.652,8.614,8.614,0,0,1,7,.182,6.2,6.2,0,0,1,2.4,2.351c.65,1.241.7,1.78.7,7.7v5.326l-1.191-.031-1.191-.031-.055-5.65c-.055-5.563-.059-5.659-.308-6.275a3.878,3.878,0,0,0-2.93-2.365c-2.374-.56-4.621.357-5.465,2.231-.534,1.186-.6,2-.6,7.252v4.862H28.666Zm79.815-8.27a10.887,10.887,0,0,0-4.4,1.114A6.292,6.292,0,0,0,102,257.361a6.168,6.168,0,0,0-1.45,1.892,6.787,6.787,0,0,0-.8,3.49,8.145,8.145,0,0,0,.934,3.891,8.576,8.576,0,0,0,7.144,4.465,11.211,11.211,0,0,0,5.833-.991,8.193,8.193,0,0,0,4.252-5.432,10.57,10.57,0,0,0,.008-3.875,8.237,8.237,0,0,0-5.85-5.694A11.248,11.248,0,0,0,108.509,254.666Zm.385,1.6a6.177,6.177,0,0,1,6.4,6.456,7.481,7.481,0,0,1-.762,3.457,5.582,5.582,0,0,1-4.064,3.212,8.955,8.955,0,0,1-1.6.156c-3.663-.03-6.075-2.5-6.276-6.415a6.7,6.7,0,0,1,.7-3.638A6.115,6.115,0,0,1,108.894,256.263ZM82.379,271.092a12.7,12.7,0,0,1-1.551-.266,8.265,8.265,0,0,1-2.466-1.162c-.205-.2-.2-.217.318-.821a3.218,3.218,0,0,1,.617-.618,4.5,4.5,0,0,1,.734.38,5.587,5.587,0,0,0,3.248.884,3,3,0,0,0,2.519-.81,3.1,3.1,0,0,0,.694-1.729,3.276,3.276,0,0,0-.892-1.868,14.845,14.845,0,0,0-3.361-2.4c-2.364-1.479-3.208-2.566-3.219-4.148-.012-1.735,1.245-3.055,3.493-3.667,1.916-.522,4.977.06,5.99,1.138l.25.266-.557.557-.557.557L86.872,257a5.865,5.865,0,0,0-2.54-.738c-2.06,0-3.329,1.539-2.518,3.054a11.051,11.051,0,0,0,2.983,2.408c2.624,1.714,3.648,2.766,4.066,4.173a3.364,3.364,0,0,1-.921,3.553,6.864,6.864,0,0,1-5.563,1.643Zm-66.4.005c-3.191-.279-5.079-1.655-5.786-4.215-.175-.633-.2-1.3-.2-6.3v-5.594l1.239-.031,1.239-.031.044,5.57c.046,5.853.063,6.065.573,7.05a3.949,3.949,0,0,0,1.753,1.634c.662.306.762.32,2.3.32s1.639-.015,2.271-.311a3.82,3.82,0,0,0,1.683-1.447c.649-1.013.635-.869.7-7.049l.057-5.705h2.326l.029,5.37c.017,3.227-.015,5.614-.082,5.982a7.331,7.331,0,0,1-.554,1.513C22.4,270.244,19.649,271.419,15.983,271.1Z" transform="translate(-10.001 -190.518)"/>
    <path id="path2461" d="M166.859,149.308a28.886,28.886,0,0,1-11.188-3.871,28.026,28.026,0,0,1-12.418-16.518,29.365,29.365,0,0,1-.837-4.563l-.07-.914,13,.028,13,.028.024,12.743c.013,7.008-.005,12.853-.041,12.988s-.121.24-.19.234-.649-.076-1.289-.155Z" transform="translate(-107.649 -93.702)" fill="#fe0000"/>
    <path id="path2459" d="M255.314,136.544l.028-12.972,12.9-.026c7.1-.014,12.939.012,12.986.059a28.3,28.3,0,0,1-.644,4.7c-.035.056-.2.61-.373,1.231a27.081,27.081,0,0,1-1.391,3.732c-.082.152-.3.6-.489,1a24.888,24.888,0,0,1-2.362,3.887,29.936,29.936,0,0,1-5.452,5.586c-.244.181-.5.38-.566.441a5.646,5.646,0,0,1-.594.388,5.073,5.073,0,0,0-.666.456,18.009,18.009,0,0,1-2.328,1.346c-.335.181-.659.365-.72.408a3.3,3.3,0,0,1-.5.226c-.44.167-1.2.488-1.767.745-.21.1-.858.313-1.44.482s-1.207.36-1.39.424-.906.215-1.606.336l-1.883.327c-.335.059-.871.128-1.191.154l-.582.047Z" transform="translate(-190.981 -93.776)" fill="#0380ba"/>
    <path id="path2457" d="M142.047,23.475V10.5l1.3.069a27.416,27.416,0,0,1,8.212,1.806,26.367,26.367,0,0,1,15.19,15.994,24.348,24.348,0,0,1,1.284,6.674l.077,1.412H142.047Z" transform="translate(-107.43 -10.367)" fill="#523a98"/>
    <path id="path2453" d="M255.289,23.071V10.055l12.656-.009c6.961,0,12.806-.021,12.988-.037a1.555,1.555,0,0,1,.471.021c.11.038.138,2.749.138,13.053v13H255.289V23.071Z" transform="translate(-190.984 -10.002)" fill="#008836"/>
  </g>
</svg>
