<svg xmlns="http://www.w3.org/2000/svg" width="60.857" height="53.25" viewBox="0 0 60.857 53.25">
  <path id="Icon_awesome-quote-left" data-name="Icon awesome-quote-left" d="M55.152,28.875H45.643V21.268a7.614,7.614,0,0,1,7.607-7.607H54.2a2.846,2.846,0,0,0,2.853-2.853V5.1A2.846,2.846,0,0,0,54.2,2.25H53.25A19.013,19.013,0,0,0,34.232,21.268V49.795A5.707,5.707,0,0,0,39.938,55.5H55.152a5.707,5.707,0,0,0,5.705-5.705V34.58A5.707,5.707,0,0,0,55.152,28.875Zm-34.232,0H11.411V21.268a7.614,7.614,0,0,1,7.607-7.607h.951a2.846,2.846,0,0,0,2.853-2.853V5.1A2.846,2.846,0,0,0,19.969,2.25h-.951A19.013,19.013,0,0,0,0,21.268V49.795A5.707,5.707,0,0,0,5.705,55.5H20.92a5.707,5.707,0,0,0,5.705-5.705V34.58A5.707,5.707,0,0,0,20.92,28.875Z" transform="translate(0 -2.25)" fill="#c97352"/>
</svg>
