<svg id="Layer_2" data-name="Layer 2" xmlns="http://www.w3.org/2000/svg" width="51" height="51" viewBox="0 0 51 51">
  <g id="_01.facebook" data-name="01.facebook">
    <circle id="background" cx="25.5" cy="25.5" r="25.5" fill="#3a559f"/>
    <path id="icon" d="M76.048,45.746l-.506,4.383a.821.821,0,0,1-.806.735H70.161l-.023,12.994a.586.586,0,0,1-.572.592H64.932a.572.572,0,0,1-.572-.595V50.863H60.929a.821.821,0,0,1-.812-.829L60.1,45.651a.823.823,0,0,1,.812-.835H64.36V40.585c0-4.912,2.916-7.585,7.193-7.585h3.505a.823.823,0,0,1,.815.835v3.688a.823.823,0,0,1-.815.835h-2.15c-2.324,0-2.776,1.144-2.776,2.8v3.662h5.109a.823.823,0,0,1,.806.929Z" transform="translate(-42.917 -23.565)" fill="#fff"/>
  </g>
</svg>
