<svg id="Layer_2" data-name="Layer 2" xmlns="http://www.w3.org/2000/svg" xmlns:xlink="http://www.w3.org/1999/xlink" width="52" height="52" viewBox="0 0 52 52">
  <defs>
    <linearGradient id="linear-gradient" x1="0.146" y1="0.146" x2="0.854" y2="0.854" gradientUnits="objectBoundingBox">
      <stop offset="0" stop-color="#fae100"/>
      <stop offset="0.15" stop-color="#fcb720"/>
      <stop offset="0.3" stop-color="#ff7950"/>
      <stop offset="0.5" stop-color="#ff1c74"/>
      <stop offset="1" stop-color="#6c1cd1"/>
    </linearGradient>
  </defs>
  <g id="Circle" transform="translate(0 0)">
    <g id="_03.Instagram" data-name="03.Instagram">
      <rect id="Background" width="52" height="52" rx="26" fill="url(#linear-gradient)"/>
      <g id="Group_117" data-name="Group 117" transform="translate(0.005)">
        <path id="Shade" d="M45.7,8.919A92.948,92.948,0,0,1,29.81,29.809,93.072,93.072,0,0,1,8.929,45.692q-.655-.569-1.273-1.187A26.068,26.068,0,1,1,44.518,7.633q.614.621,1.184,1.286Z" transform="translate(-0.016 0)" fill="#fff" opacity="0.1"/>
        <g id="Icon" transform="translate(12.344 12.349)">
          <path id="Path_451" data-name="Path 451" d="M55.9,36H43.547A7.547,7.547,0,0,0,36,43.547V55.9a7.547,7.547,0,0,0,7.547,7.547H55.9A7.547,7.547,0,0,0,63.442,55.9V43.547A7.547,7.547,0,0,0,55.9,36Zm5.145,18.812a6.229,6.229,0,0,1-6.229,6.229H44.631A6.229,6.229,0,0,1,38.4,54.812V44.631A6.229,6.229,0,0,1,44.631,38.4H54.812a6.229,6.229,0,0,1,6.229,6.229Z" transform="translate(-36 -36)" fill="#fff"/>
          <path id="Path_452" data-name="Path 452" d="M67.615,57.467,67.55,57.4l-.055-.055a6.915,6.915,0,0,0-4.885-2.017,7.039,7.039,0,0,0-6.991,7.09,7.118,7.118,0,0,0,2.058,5.012,6.926,6.926,0,0,0,4.947,2.058,7.111,7.111,0,0,0,4.991-12.023Zm-5,9.6A4.651,4.651,0,1,1,67.2,62.42,4.651,4.651,0,0,1,62.611,67.072Z" transform="translate(-48.889 -48.699)" fill="#fff"/>
          <path id="Path_453" data-name="Path 453" d="M96.065,51.161A1.674,1.674,0,0,1,94.4,52.849a1.65,1.65,0,0,1-1.173-.491A1.691,1.691,0,0,1,94.4,49.48a1.654,1.654,0,0,1,1.06.384l.034.034a1.046,1.046,0,0,1,.151.151l.038.041A1.688,1.688,0,0,1,96.065,51.161Z" transform="translate(-73.277 -44.856)" fill="#fff"/>
        </g>
      </g>
    </g>
  </g>
</svg>
