<svg xmlns="http://www.w3.org/2000/svg" width="86" height="86" viewBox="0 0 86 86">
  <path id="Path_440" data-name="Path 440" d="M73.4,12.589A43,43,0,1,0,86,42.99,43,43,0,0,0,73.4,12.589ZM65.122,59.9l-.006.006V59.89l-2.179,2.164a11.467,11.467,0,0,1-10.822,3.1A38.1,38.1,0,0,1,41.05,60.191a51.125,51.125,0,0,1-8.729-7.038A51.518,51.518,0,0,1,25.8,45.241a40.129,40.129,0,0,1-4.9-9.919,11.466,11.466,0,0,1,2.867-11.71l2.551-2.551a1.82,1.82,0,0,1,2.574-.006l.006.006,8.055,8.055a1.82,1.82,0,0,1,.006,2.574l-.006.006-4.73,4.73a3.856,3.856,0,0,0-.4,5.017,55.317,55.317,0,0,0,5.662,6.608,54.979,54.979,0,0,0,7.453,6.264,3.884,3.884,0,0,0,4.959-.43l4.572-4.644a1.82,1.82,0,0,1,2.574-.006l.006.006,8.07,8.084A1.82,1.82,0,0,1,65.122,59.9Z" transform="translate(0 0)" fill="#ca7353"/>
</svg>
