<svg xmlns="http://www.w3.org/2000/svg" width="86.818" height="86.818" viewBox="0 0 86.818 86.818">
  <g id="website" transform="translate(-2 -2)">
    <path id="Path_441" data-name="Path 441" d="M26.659,13.925a23.627,23.627,0,0,0-12.18,10.988h7.537a30.306,30.306,0,0,1,4.643-10.988Z" transform="translate(10.092 9.644)" fill="#ca7353"/>
    <path id="Path_442" data-name="Path 442" d="M22.043,29.235A51.28,51.28,0,0,1,22.561,22H14.15a23.332,23.332,0,0,0,0,14.47h8.41a51.279,51.279,0,0,1-.517-7.235Z" transform="translate(8.896 16.174)" fill="#ca7353"/>
    <path id="Path_443" data-name="Path 443" d="M39.872,25.661C37.924,17.815,34.014,13,30.286,13S22.641,17.815,20.7,25.661Z" transform="translate(15.123 8.896)" fill="#ca7353"/>
    <path id="Path_444" data-name="Path 444" d="M20,29.235a48.2,48.2,0,0,0,.532,7.235H41.173a49.482,49.482,0,0,0,0-14.47H20.532A48.2,48.2,0,0,0,20,29.235Z" transform="translate(14.557 16.174)" fill="#ca7353"/>
    <path id="Path_445" data-name="Path 445" d="M14.479,32a23.627,23.627,0,0,0,12.18,10.988A30.307,30.307,0,0,1,22.016,32Z" transform="translate(10.092 24.261)" fill="#ca7353"/>
    <path id="Path_446" data-name="Path 446" d="M34.231,29.235a51.279,51.279,0,0,1-.517,7.235h8.41a23.332,23.332,0,0,0,0-14.47h-8.41a51.279,51.279,0,0,1,.517,7.235Z" transform="translate(25.647 16.174)" fill="#ca7353"/>
    <path id="Path_447" data-name="Path 447" d="M45.409,2A43.409,43.409,0,1,0,88.818,45.409,43.409,43.409,0,0,0,45.409,2Zm0,70.539A27.131,27.131,0,1,1,72.539,45.409,27.131,27.131,0,0,1,45.409,72.539Z" transform="translate(0 0)" fill="#ca7353"/>
    <path id="Path_448" data-name="Path 448" d="M20.7,32c1.948,7.846,5.858,12.661,9.586,12.661S37.932,39.846,39.872,32Z" transform="translate(15.123 24.261)" fill="#ca7353"/>
    <path id="Path_449" data-name="Path 449" d="M30.787,13.925A30.307,30.307,0,0,1,35.43,24.913h7.537a23.627,23.627,0,0,0-12.18-10.988Z" transform="translate(23.28 9.644)" fill="#ca7353"/>
    <path id="Path_450" data-name="Path 450" d="M30.787,42.988A23.627,23.627,0,0,0,42.967,32H35.43a30.307,30.307,0,0,1-4.643,10.988Z" transform="translate(23.28 24.261)" fill="#ca7353"/>
  </g>
</svg>
